<svg id="Слой_1" data-name="Слой 1" xmlns="http://www.w3.org/2000/svg" xmlns:xlink="http://www.w3.org/1999/xlink" viewBox="0 0 275 53"><defs><style>.cls-1{fill:none;}.cls-2{fill:red;}.cls-3{fill:#ff0;}.cls-4{clip-path:url(#clip-path);}.cls-5{fill:#1f0aff;}.cls-6,.cls-7,.cls-9{fill:#fff;}.cls-7{font-size:27px;}.cls-7,.cls-9{font-family:Roboto-Bold, Roboto;font-weight:700;}.cls-8{letter-spacing:-0.04em;}.cls-9{font-size:14px;}.cls-10{letter-spacing:0em;}.cls-11{letter-spacing:-0.06em;}</style><clipPath id="clip-path"><ellipse class="cls-1" cx="72.75" cy="26.5" rx="25.25" ry="25.5"/></clipPath></defs><title>Монтажная область 1</title><circle class="cls-2" cx="26.5" cy="26.5" r="25.5"/><polygon class="cls-3" points="19.93 28.59 14.51 25.79 9.14 28.67 10.12 22.66 5.72 18.44 11.74 17.52 14.4 12.03 17.14 17.48 23.17 18.3 18.85 22.59 19.93 28.59"/><polygon class="cls-3" points="25.16 32.21 26.89 30.43 26.4 28 28.62 29.09 30.78 27.87 30.43 30.32 32.26 32 29.82 32.43 28.79 34.68 27.63 32.49 25.16 32.21"/><polygon class="cls-3" points="24 10.25 23.37 7.85 21.04 7.01 23.12 5.67 23.2 3.2 25.12 4.76 27.49 4.07 26.6 6.38 27.99 8.43 25.52 8.29 24 10.25"/><polygon class="cls-3" points="28.12 15.71 28.46 13.25 26.64 11.58 29.07 11.15 30.1 8.89 31.27 11.08 33.73 11.36 32.01 13.14 32.5 15.57 30.27 14.49 28.12 15.71"/><polygon class="cls-3" points="28.91 24.31 29.84 22.01 28.48 19.95 30.95 20.12 32.49 18.19 33.09 20.59 35.41 21.46 33.3 22.77 33.19 25.25 31.3 23.65 28.91 24.31"/><g class="cls-4"><rect class="cls-5" x="47.5" y="17.36" width="55.26" height="17.32"/><rect class="cls-6" x="47.5" y="0.04" width="55.26" height="17.32"/><rect class="cls-2" x="47.5" y="34.68" width="55.26" height="17.32"/></g><text class="cls-7" transform="translate(103.33 26) scale(0.85 1)">1KARG<tspan class="cls-8" x="86.42" y="0">O</tspan><tspan x="103.89" y="0">.RU</tspan></text><text class="cls-9" transform="translate(105 44) scale(0.75 1)">ПЕРЕВОЗКИ ИЗ К<tspan class="cls-10" x="115.22" y="0">И</tspan><tspan class="cls-11" x="124.97" y="0">Т</tspan><tspan x="132.76" y="0" xml:space="preserve">АЯ В РОССИЮ    </tspan></text></svg>