<svg id="Слой_1" data-name="Слой 1" xmlns="http://www.w3.org/2000/svg" viewBox="0 0 60 60"><defs><style>.cls-1{fill:#fff;}.cls-2{fill:#f33;}</style></defs><title>Монтажная область 1</title><circle class="cls-1" cx="30" cy="30" r="27"/><path class="cls-2" d="M30,6A24,24,0,1,1,6,30,24,24,0,0,1,30,6m0-6A30,30,0,1,0,60,30,30,30,0,0,0,30,0Z"/><path class="cls-1" d="M19.66,41.86a1.41,1.41,0,0,1-1-2.41L39.3,18.81a1.41,1.41,0,0,1,2,2L20.66,41.45A1.4,1.4,0,0,1,19.66,41.86Z"/><path class="cls-2" d="M40.3,15.39a4.37,4.37,0,0,0-3.12,1.3L16.54,37.33a4.41,4.41,0,0,0,6.24,6.24L43.42,22.93a4.42,4.42,0,0,0-3.12-7.54Z"/><path class="cls-1" d="M40.3,41.86a1.4,1.4,0,0,1-1-.41L18.66,20.8a1.41,1.41,0,0,1,0-2,1.4,1.4,0,0,1,2,0L41.3,39.45a1.42,1.42,0,0,1,0,2A1.4,1.4,0,0,1,40.3,41.86Z"/><path class="cls-2" d="M19.66,15.39a4.37,4.37,0,0,0-3.12,1.3,4.42,4.42,0,0,0,0,6.24L37.18,43.57a4.41,4.41,0,0,0,6.24-6.24L22.78,16.69a4.37,4.37,0,0,0-3.12-1.3Z"/></svg>