<svg id="Слой_1" data-name="Слой 1" xmlns="http://www.w3.org/2000/svg" viewBox="0 0 60 60"><defs><style>.cls-1{fill:#fff;}.cls-2{fill:#090;}</style></defs><title>Монтажная область 1</title><circle class="cls-1" cx="30" cy="30" r="27"/><path class="cls-2" d="M30,6A24,24,0,1,1,6,30,24,24,0,0,1,30,6m0-6A30,30,0,1,0,60,30,30,30,0,0,0,30,0Z"/><path class="cls-1" d="M28.24,37.37a.64.64,0,0,1-.48-.22l-6-6.89a.63.63,0,0,1,.06-.89.62.62,0,0,1,.42-.15.66.66,0,0,1,.48.21l6,6.89a.61.61,0,0,1,.15.46.65.65,0,0,1-.63.59Z"/><path class="cls-2" d="M22.26,26.22a3.58,3.58,0,0,0-2.38.89,3.62,3.62,0,0,0-.36,5.12l6,6.89A3.63,3.63,0,1,0,31,34.35l-6-6.88a3.62,3.62,0,0,0-2.74-1.25Z"/><path class="cls-1" d="M29.37,38a1.39,1.39,0,0,1-.77-.23,1.42,1.42,0,0,1-.41-2l11.62-17.7A1.42,1.42,0,0,1,41,17.51a1.44,1.44,0,0,1,.77.23,1.42,1.42,0,0,1,.4,2L30.55,37.4A1.4,1.4,0,0,1,29.37,38Z"/><path class="cls-2" d="M41,14.51a4.42,4.42,0,0,0-3.7,2L25.68,34.2A4.41,4.41,0,0,0,27,40.31h0a4.4,4.4,0,0,0,6.11-1.26l11.62-17.7a4.41,4.41,0,0,0-1.27-6.11A4.36,4.36,0,0,0,41,14.51Z"/></svg>